<?xml version="1.0" standalone="no"?>
<!DOCTYPE svg PUBLIC "-//W3C//DTD SVG 20010904//EN"
 "http://www.w3.org/TR/2001/REC-SVG-20010904/DTD/svg10.dtd">
<svg version="1.0" xmlns="http://www.w3.org/2000/svg"
 width="500.000000pt" height="500.000000pt" viewBox="0 0 500.000000 500.000000"
 preserveAspectRatio="xMidYMid meet">

<g transform="translate(0.000000,500.000000) scale(0.100000,-0.100000)"
fill="#000000" stroke="none">
<path d="M2070 3386 c-78 -17 -125 -42 -180 -96 -90 -88 -131 -206 -110 -322
20 -106 50 -150 223 -326 l161 -162 93 92 c51 51 93 96 93 100 0 3 -48 33
-107 66 -60 33 -124 68 -143 79 -19 11 -86 48 -147 83 -62 34 -113 66 -113 71
0 14 31 39 57 45 14 4 70 1 124 -6 l99 -12 31 26 c17 14 34 26 38 26 19 0 51
-34 51 -54 0 -21 6 -24 51 -30 47 -6 54 -5 78 18 42 40 91 32 91 -14 0 -32 7
-36 84 -45 l57 -7 88 84 c119 116 256 182 295 143 40 -41 -48 -208 -176 -333
l-54 -52 10 -70 c9 -62 12 -69 29 -64 22 7 57 -21 57 -46 0 -9 -13 -28 -28
-43 -22 -21 -27 -34 -24 -57 2 -17 7 -30 10 -30 3 0 85 80 182 178 208 210
231 246 238 377 5 95 -11 155 -60 230 -90 136 -279 194 -438 135 -48 -18 -81
-41 -144 -101 l-83 -78 -39 41 c-128 133 -258 184 -394 154z"/>
<path d="M2417 2422 l-97 -97 92 -92 93 -91 68 68 c37 37 67 70 67 75 0 4 -23
48 -52 99 -28 50 -57 101 -63 113 -11 21 -16 18 -108 -75z"/>
<path d="M1600 1994 c0 -4 18 -38 40 -76 30 -53 40 -81 40 -114 0 -44 0 -44
35 -44 l35 0 0 49 c0 40 8 63 40 118 l39 68 -27 3 c-19 3 -31 -3 -42 -19 -44
-67 -45 -67 -74 -21 -21 34 -32 42 -56 42 -17 0 -30 -3 -30 -6z"/>
<path d="M2539 1883 l49 -118 40 -3 40 -3 46 110 c25 61 46 115 46 121 0 6
-12 10 -27 8 -24 -3 -34 -15 -65 -78 l-36 -75 -32 70 c-36 77 -43 85 -82 85
l-27 0 48 -117z"/>
<path d="M1902 1953 c-120 -59 -46 -225 90 -199 55 10 65 21 45 44 -15 17 -23
18 -47 9 -23 -9 -33 -7 -56 9 l-29 19 83 3 c74 3 82 5 82 23 0 36 -31 80 -65
95 -44 18 -62 17 -103 -3z m96 -55 c3 -15 -4 -18 -42 -18 -25 0 -46 4 -46 8 0
34 82 42 88 10z"/>
<path d="M2111 1875 c5 -104 17 -120 87 -118 26 1 66 2 90 2 l42 0 0 101 0
100 -35 0 -35 0 0 -64 c0 -70 -12 -90 -52 -84 -21 3 -23 8 -26 76 l-3 72 -35
0 -36 0 3 -85z"/>
<path d="M2810 1860 l0 -100 35 0 35 0 0 100 0 100 -35 0 -35 0 0 -100z"/>
<path d="M2947 1873 c19 -49 37 -94 40 -100 3 -7 22 -13 44 -13 43 0 41 -2 95
138 l24 63 -32 -3 c-28 -3 -34 -9 -54 -58 -12 -30 -26 -56 -30 -57 -5 -2 -20
24 -32 57 -22 57 -25 60 -57 60 l-33 0 35 -87z"/>
<path d="M3180 1903 c0 -87 15 -128 50 -143 17 -7 42 -9 57 -5 16 3 47 6 71 5
l42 -1 0 101 0 100 -30 0 c-28 0 -30 -2 -30 -39 0 -70 -11 -101 -36 -107 -40
-10 -54 11 -54 82 l0 64 -35 0 -35 0 0 -57z"/>
</g>
</svg>
