<?xml version="1.0" standalone="no"?>
<!DOCTYPE svg PUBLIC "-//W3C//DTD SVG 20010904//EN"
 "http://www.w3.org/TR/2001/REC-SVG-20010904/DTD/svg10.dtd">
<svg version="1.0" xmlns="http://www.w3.org/2000/svg"
 width="2085.000000pt" height="2084.000000pt" viewBox="0 0 2085.000000 2084.000000"
 preserveAspectRatio="xMidYMid meet">

<g transform="translate(0.000000,2084.000000) scale(0.100000,-0.100000)"
fill="#000000" stroke="none">
<path d="M8860 14163 c-631 -35 -1177 -446 -1384 -1042 -63 -182 -79 -281 -80
-496 -1 -216 14 -321 70 -493 63 -195 158 -365 290 -522 34 -41 335 -347 668
-680 l606 -605 410 410 c225 225 410 412 410 415 0 3 -42 28 -93 55 -453 248
-2015 1123 -2029 1137 -11 11 -18 33 -18 55 0 29 8 43 42 76 23 22 75 55 115
74 122 58 168 57 611 -17 l374 -62 92 91 c51 50 109 98 129 106 100 41 207
-11 239 -117 11 -38 8 -60 -18 -138 -4 -12 37 -22 240 -54 l246 -40 97 96 c54
52 109 101 123 108 128 68 270 -24 258 -167 -3 -33 -13 -65 -26 -82 l-20 -28
315 -53 315 -52 287 284 c157 156 315 307 351 335 223 174 512 317 770 383 97
25 139 17 187 -32 47 -50 56 -95 33 -181 -74 -282 -218 -567 -403 -796 -33
-42 -182 -198 -330 -348 l-270 -272 42 -258 c24 -142 48 -283 53 -315 l10 -56
36 25 c32 21 46 24 97 21 99 -6 165 -73 165 -167 0 -65 -16 -91 -125 -201
l-103 -105 24 -140 c13 -77 23 -142 24 -145 1 -13 1420 1416 1475 1485 321
409 415 955 250 1451 -174 521 -625 920 -1160 1028 -129 26 -302 36 -432 26
-221 -18 -383 -63 -578 -160 -191 -95 -281 -167 -558 -440 l-248 -245 -202
203 c-222 223 -323 314 -437 389 -157 105 -360 190 -545 227 -71 14 -304 38
-330 34 -5 -1 -35 -3 -65 -5z"/>
<path d="M10065 10110 l-410 -410 393 -392 392 -393 301 301 301 301 -267 478
c-146 263 -271 488 -277 501 -6 13 -14 24 -17 24 -3 0 -191 -185 -416 -410z"/>
</g>
</svg>
